<svg display="none" xmlns="http://www.w3.org/2000/svg">

    <!-- checkboxBefore -->
   <symbol id="checkboxBefore" xmlns="http://www.w3.org/2000/svg"  viewBox="0 0 25 25" fill="none">
<path d="M0 2C0 0.89543 0.895431 0 2 0H23C24.1046 0 25 0.895431 25 2V23C25 24.1046 24.1046 25 23 25H2C0.89543 25 0 24.1046 0 23V2Z" fill="#F0F4F7"/>
</symbol>




    <!-- checkboxAfter -->
    <symbol id="checkboxAfter" xmlns="http://www.w3.org/2000/svg" viewBox="0 0 25 25" fill="none">
<path d="M1 2C1 1.44772 1.44772 1 2 1H23C23.5523 1 24 1.44771 24 2V23C24 23.5523 23.5523 24 23 24H2C1.44771 24 1 23.5523 1 23V2Z" fill="white" stroke="#1D88E5" stroke-width="2"/>
<g clip-path="url(#clip0_1_1127)">
<path d="M17.8115 5.87891L10.9385 14.9404L6.875 10.8799L5 12.7549L11.249 19.0039L20 7.75391L17.8115 5.87891Z" fill="#1D88E5"/>
</g>
<defs>
<clipPath id="clip0_1_1127">
<rect width="15" height="15" fill="white" transform="translate(5 5)"/>
</clipPath>
</defs>
</symbol>
    <!-- radioBefore -->

<symbol id="radioBefore" xmlns="http://www.w3.org/2000/svg" viewBox="0 0 20 20" fill="none">
<path d="M0 10C0 4.47715 4.47715 0 10 0C15.5228 0 20 4.47715 20 10C20 15.5228 15.5228 20 10 20C4.47715 20 0 15.5228 0 10Z" fill="white"/>
</symbol>
    <!-- radioAfter -->
    <symbol id="radioAfter" xmlns="http://www.w3.org/2000/svg"  viewBox="0 0 20 20" fill="none">
<path d="M0 10C0 4.47715 4.47715 0 10 0C15.5228 0 20 4.47715 20 10C20 15.5228 15.5228 20 10 20C4.47715 20 0 15.5228 0 10Z" fill="#1D88E5"/>
<path d="M6 10C6 7.79086 7.79086 6 10 6C12.2091 6 14 7.79086 14 10C14 12.2091 12.2091 14 10 14C7.79086 14 6 12.2091 6 10Z" fill="white"/>
</symbol>
    

<!-- tick -->
    <symbol id="tick" xmlns="http://www.w3.org/2000/svg"  viewBox="0 0 10 10">
<g clip-path="url(#clip0_1_815)">
<path d="M8.54077 0.585938L3.95874 6.62695L1.24976 3.91992L-0.000244141 5.16992L4.16577 9.33594L9.99976 1.83594L8.54077 0.585938Z"/>
</g>
<defs>
<clipPath id="clip0_1_815">
<rect width="10" height="10"  transform="translate(-0.000244141)"/>
</clipPath>
</defs>
</symbol>


<!-- table -->
    <symbol id="table" xmlns="http://www.w3.org/2000/svg"  viewBox="0 0 20 20">
<path d="M18.0881 5.51312C17.9394 5.22528 17.7264 4.98541 17.47 4.81691C17.2136 4.6484 16.9224 4.55702 16.625 4.55167H5.60846L5.10928 2.37879C5.05884 2.16903 4.94632 1.98454 4.79004 1.85534C4.63376 1.72615 4.44292 1.65988 4.24862 1.66731H2.52729C2.29903 1.66731 2.08011 1.76861 1.91871 1.94891C1.7573 2.12922 1.66663 2.37377 1.66663 2.62876C1.66663 2.88376 1.7573 3.12831 1.91871 3.30861C2.08011 3.48892 2.29903 3.59022 2.52729 3.59022H3.59451L5.96994 13.4547C6.02038 13.6645 6.1329 13.849 6.28918 13.9782C6.44547 14.1073 6.6363 14.1736 6.83061 14.1662H14.5766C14.7355 14.1656 14.8912 14.116 15.0264 14.0226C15.1616 13.9293 15.271 13.7959 15.3426 13.6374L18.1655 7.33026C18.2879 7.04376 18.3449 6.72788 18.3313 6.41081C18.3178 6.09374 18.2343 5.78533 18.0881 5.51312ZM14.043 12.2433H7.48471L6.08183 6.47457H16.625L14.043 12.2433Z" />
<path d="M6.25 18.3333C6.94036 18.3333 7.5 17.7736 7.5 17.0833C7.5 16.3929 6.94036 15.8333 6.25 15.8333C5.55964 15.8333 5 16.3929 5 17.0833C5 17.7736 5.55964 18.3333 6.25 18.3333Z" />
<path d="M15.4166 18.3333C16.107 18.3333 16.6666 17.7736 16.6666 17.0833C16.6666 16.3929 16.107 15.8333 15.4166 15.8333C14.7263 15.8333 14.1666 16.3929 14.1666 17.0833C14.1666 17.7736 14.7263 18.3333 15.4166 18.3333Z" />
</symbol>

<!-- favorite -->
    <symbol id="favorite" xmlns="http://www.w3.org/2000/svg"  viewBox="0 0 20 20">
<path fill-rule="evenodd" clip-rule="evenodd" d="M6.88949 4.99993C6.40544 4.99885 5.92664 5.09511 5.48086 5.28242C5.03512 5.46972 4.63216 5.74391 4.29435 6.08766C3.9566 6.43135 3.69069 6.83766 3.51023 7.28235C3.32982 7.72694 3.23793 8.20216 3.23896 8.68102C3.23999 9.15988 3.33392 9.63471 3.51627 10.0785C3.69865 10.5225 3.96634 10.9276 4.3056 11.2698L4.3081 11.2724L9.31858 16.3709C9.50112 16.5566 9.75527 16.6666 10.0267 16.6666C10.298 16.6666 10.5521 16.5566 10.7346 16.371C10.7345 16.3711 10.7346 16.371 10.7346 16.371L15.7414 11.2753C16.4045 10.5813 16.7669 9.65698 16.7609 8.70363C16.7549 7.74864 16.3796 6.82733 15.7054 6.14137C15.0301 5.45433 14.1095 5.06005 13.1415 5.05388C12.1734 5.04771 11.2478 5.43024 10.5639 6.10886C10.2579 6.41253 9.78088 6.40824 9.47975 6.09912C9.14345 5.7539 8.74173 5.47794 8.29683 5.28868C7.85189 5.0994 7.37354 5.00101 6.88949 4.99993ZM4.90145 3.73305C5.53378 3.46735 6.21042 3.33174 6.89279 3.33326C7.57516 3.33479 8.25123 3.4734 8.88246 3.74193C9.29371 3.91689 9.68108 4.14493 10.0352 4.42026C10.9356 3.74437 12.0278 3.38008 13.151 3.38724C14.5125 3.39593 15.822 3.94985 16.7942 4.93896C17.7674 5.92915 18.3243 7.27695 18.3332 8.69251C18.3421 10.1081 17.8022 11.4633 16.8413 12.4664L16.8341 12.4737L11.8236 17.5733C11.3417 18.0634 10.6947 18.3333 10.0267 18.3333C9.35859 18.3333 8.71174 18.0636 8.22989 17.5734L3.22171 12.4772C3.22127 12.4768 3.22083 12.4763 3.2204 12.4759C2.73189 11.9828 2.342 11.3946 2.07471 10.744C1.80715 10.0928 1.66816 9.39287 1.66664 8.68482C1.66511 7.97677 1.80109 7.27624 2.06586 6.62378C2.3306 5.97139 2.71844 5.38093 3.20548 4.88533C3.69244 4.38981 4.26906 3.99876 4.90145 3.73305Z"/>
</symbol>

<!-- comparison -->
    <symbol id="comparison" xmlns="http://www.w3.org/2000/svg"  viewBox="0 0 20 20">
<path d="M14.2507 17.5V13.3486C14.2507 12.7963 14.6984 12.3486 15.2507 12.3486H15.6666C16.2189 12.3486 16.6666 12.7963 16.6666 13.3486V17.5H14.2507ZM9.20864 17.5V3.5C9.20864 2.94772 9.65636 2.5 10.2086 2.5H10.6246C11.1769 2.5 11.6246 2.94772 11.6246 3.5V17.5H9.20864ZM4.16663 17.5V8.65143C4.16663 8.09914 4.61434 7.65143 5.16663 7.65143H5.58259C6.13488 7.65143 6.58259 8.09914 6.58259 8.65143V17.5H4.16663Z"/>
</symbol>



<!-- information -->
    <symbol id="information" xmlns="http://www.w3.org/2000/svg" viewBox="0 0 16 16">
<g clip-path="url(#clip0_1_820)">
<path fill-rule="evenodd" clip-rule="evenodd" d="M8.00001 2.22211C4.80903 2.22211 2.22224 4.80891 2.22224 7.99989C2.22224 11.1909 4.80903 13.7777 8.00001 13.7777C11.191 13.7777 13.7778 11.1909 13.7778 7.99989C13.7778 4.80891 11.191 2.22211 8.00001 2.22211ZM0.444458 7.99989C0.444458 3.82707 3.82719 0.444336 8.00001 0.444336C12.1728 0.444336 15.5556 3.82707 15.5556 7.99989C15.5556 12.1727 12.1728 15.5554 8.00001 15.5554C3.82719 15.5554 0.444458 12.1727 0.444458 7.99989Z"/>
<path fill-rule="evenodd" clip-rule="evenodd" d="M7.11112 5.33322C7.11112 4.8423 7.50909 4.44434 8.00001 4.44434H8.00668C8.4976 4.44434 8.89557 4.8423 8.89557 5.33322C8.89557 5.82414 8.4976 6.22211 8.00668 6.22211H8.00001C7.50909 6.22211 7.11112 5.82414 7.11112 5.33322ZM8.00001 7.111C8.49093 7.111 8.8889 7.50897 8.8889 7.99989V10.6666C8.8889 11.1575 8.49093 11.5554 8.00001 11.5554C7.50909 11.5554 7.11112 11.1575 7.11112 10.6666V7.99989C7.11112 7.50897 7.50909 7.111 8.00001 7.111Z"/>
</g>
<defs>
<clipPath id="clip0_1_820">
<rect width="16" height="16" />
</clipPath>
</defs>
</symbol>



<!-- deliver -->
    <symbol id="deliver" xmlns="http://www.w3.org/2000/svg"  viewBox="0 0 30 30">
<path fill-rule="evenodd" clip-rule="evenodd" d="M21.25 21.0001C20.4216 21.0001 19.75 21.6717 19.75 22.5001C19.75 23.3285 20.4216 24.0001 21.25 24.0001C22.0784 24.0001 22.75 23.3285 22.75 22.5001C22.75 21.6717 22.0784 21.0001 21.25 21.0001ZM17.75 22.5001C17.75 20.5671 19.317 19.0001 21.25 19.0001C23.183 19.0001 24.75 20.5671 24.75 22.5001C24.75 24.4331 23.183 26.0001 21.25 26.0001C19.317 26.0001 17.75 24.4331 17.75 22.5001Z" />
<path fill-rule="evenodd" clip-rule="evenodd" d="M8.75 21.0001C7.92157 21.0001 7.25 21.6717 7.25 22.5001C7.25 23.3285 7.92157 24.0001 8.75 24.0001C9.57843 24.0001 10.25 23.3285 10.25 22.5001C10.25 21.6717 9.57843 21.0001 8.75 21.0001ZM5.25 22.5001C5.25 20.5671 6.817 19.0001 8.75 19.0001C10.683 19.0001 12.25 20.5671 12.25 22.5001C12.25 24.4331 10.683 26.0001 8.75 26.0001C6.817 26.0001 5.25 24.4331 5.25 22.5001Z" />
<path fill-rule="evenodd" clip-rule="evenodd" d="M22.4401 8.55035C21.9547 8.50128 21.3313 8.5001 20.4012 8.5001H18.125C17.5727 8.5001 17.125 8.05239 17.125 7.5001C17.125 6.94782 17.5727 6.5001 18.125 6.5001L20.4504 6.5001C21.3186 6.50008 22.0435 6.50006 22.6412 6.56049C23.2728 6.62433 23.8433 6.7615 24.3832 7.08434C24.9235 7.40638 25.3149 7.8438 25.6704 8.36938C26.0072 8.86732 26.3508 9.50593 26.7622 10.2703L28.3805 13.276C28.6423 13.7623 28.4603 14.3688 27.9741 14.6306C27.4878 14.8924 26.8813 14.7104 26.6195 14.2242L25.0245 11.2617C24.5838 10.4428 24.2871 9.89411 24.0137 9.48989C23.753 9.10446 23.5586 8.921 23.3585 8.80188L23.3568 8.80086C23.1567 8.6812 22.9028 8.59713 22.4401 8.55035Z" />
<path fill-rule="evenodd" clip-rule="evenodd" d="M15.8428 4.23281C15.1241 3.99914 14.2762 3.99951 13.056 4.00005L15.8428 4.23281ZM13.056 4.00005C12.9966 4.00008 12.9362 4.0001 12.875 4.0001L13.056 4.00005ZM15.2245 6.13483C14.8482 6.01246 14.3491 6.0001 12.875 6.0001H2.5C1.94772 6.0001 1.5 5.55239 1.5 5.0001C1.5 4.44782 1.94772 4.0001 2.5 4.0001H12.875M15.8428 4.23281C16.5556 4.46446 17.2036 4.86157 17.7336 5.39152C18.2635 5.92148 18.6606 6.56931 18.8922 7.28208C19.126 8.00081 19.1256 8.84878 19.1251 10.0691C19.125 10.1285 19.125 10.1889 19.125 10.2501C19.125 11.2594 19.1374 11.5257 19.1984 11.713C19.2715 11.9381 19.3971 12.1433 19.5645 12.3106C19.7318 12.478 19.9364 12.6034 20.1615 12.6766C20.3489 12.7375 20.6157 12.7501 21.625 12.7501H27.5C28.0523 12.7501 28.5 13.1978 28.5 13.7501V16.3211C28.5 17.7338 28.5001 18.8944 28.3767 19.8121C28.2474 20.7739 27.9664 21.617 27.2926 22.2917L27.2914 22.2929C26.3963 23.1862 25.1998 23.3949 23.7992 23.4639C23.2475 23.491 22.7784 23.0659 22.7512 22.5143C22.7241 21.9627 23.1492 21.4935 23.7008 21.4663C25.0422 21.4003 25.5533 21.2017 25.8782 20.8776C26.119 20.6362 26.2952 20.2848 26.3945 19.5456C26.4979 18.7768 26.5 17.7515 26.5 16.2501V14.7501H21.625C21.5737 14.7501 21.5231 14.7501 21.4732 14.7502C20.6926 14.7509 20.0746 14.7514 19.5435 14.5787M15.2245 6.13483C15.6372 6.26894 16.0125 6.49889 16.3194 6.80574L15.2245 6.13483ZM16.3194 6.80574C16.6262 7.11258 16.8561 7.48769 16.9902 7.9004L16.3194 6.80574ZM16.9902 7.9004C17.1126 8.27666 17.125 8.776 17.125 10.2501L16.9902 7.9004ZM1.5 10.0001C1.5 9.44782 1.94772 9.0001 2.5 9.0001H10C10.5523 9.0001 11 9.44782 11 10.0001C11 10.5524 10.5523 11.0001 10 11.0001H2.5C1.94772 11.0001 1.5 10.5524 1.5 10.0001ZM17.125 10.2501C17.125 10.3014 17.125 10.352 17.1249 10.4019L17.125 10.2501ZM17.1249 10.4019C17.1242 11.1825 17.1237 11.8006 17.2965 12.3317L17.1249 10.4019ZM17.2965 12.3317C17.4672 12.8567 17.7598 13.3345 18.1502 13.7249C18.5406 14.1153 19.0184 14.4079 19.5435 14.5787M1.5 13.7501C1.5 13.1978 1.94772 12.7501 2.5 12.7501H7.5C8.05228 12.7501 8.5 13.1978 8.5 13.7501C8.5 14.3024 8.05228 14.7501 7.5 14.7501H2.5C1.94772 14.7501 1.5 14.3024 1.5 13.7501ZM2.48583 17.7513C3.03745 17.7242 3.50664 18.1493 3.53379 18.7009C3.59994 20.0448 3.798 20.5546 4.12138 20.8773C4.44632 21.2015 4.95727 21.4003 6.29917 21.4663C6.85078 21.4935 7.27594 21.9627 7.24879 22.5143C7.22164 23.0659 6.75245 23.491 6.20083 23.4639C4.80023 23.3949 3.60368 23.1862 2.70862 22.2929C1.812 21.3982 1.60506 20.1979 1.53621 18.7993C1.50906 18.2477 1.93422 17.7785 2.48583 17.7513ZM10.25 22.5001C10.25 21.9478 10.6977 21.5001 11.25 21.5001H18.75C19.3023 21.5001 19.75 21.9478 19.75 22.5001C19.75 23.0524 19.3023 23.5001 18.75 23.5001H11.25C10.6977 23.5001 10.25 23.0524 10.25 22.5001Z" />
<path fill-rule="evenodd" clip-rule="evenodd" d="M14.4178 6.00012H10.5V4.00012H14.5804L14.6598 4.01297C15.7317 4.18649 16.6382 4.46786 17.3765 5.09978C18.1069 5.72496 18.5528 6.59155 18.9401 7.65911L19 7.82435V11.9119C19.124 12.583 19.2693 12.7437 19.3664 12.8124C19.5151 12.9175 19.8915 13.0491 20.9549 13.0011L20.9774 13.0001H28V15.0001H21.0222C19.9276 15.0478 18.9481 14.9663 18.2115 14.4452C17.422 13.8868 17.1586 13.0087 17.0144 12.1694L17 12.0854V8.17942C16.675 7.32187 16.3901 6.88808 16.076 6.61923C15.7597 6.34851 15.3023 6.1501 14.4178 6.00012Z" />
</symbol>

<!-- payment -->
    <symbol id="payment" xmlns="http://www.w3.org/2000/svg" viewBox="0 0 30 30">
<path fill-rule="evenodd" clip-rule="evenodd" d="M26.155 14.6875H22.7875C21.0075 14.6875 19.6862 16.0113 19.6862 17.5C19.6862 18.9887 21.0075 20.3125 22.7863 20.3125H26.1838C26.4413 20.2962 26.5525 20.1225 26.5613 20.0175V14.9825C26.5525 14.8775 26.4413 14.7038 26.1838 14.6888L26.155 14.6875ZM26.0625 12.8125C26.145 12.8125 26.225 12.8125 26.3 12.8175C27.3875 12.8837 28.3513 13.705 28.4325 14.8525C28.4375 14.9275 28.4375 15.0088 28.4375 15.0838V19.9162C28.4375 19.9912 28.4375 20.0725 28.4325 20.1475C28.3513 21.295 27.3875 22.1163 26.2987 22.1838C26.225 22.1875 26.145 22.1875 26.0613 22.1875H22.7888C20.1075 22.1875 17.8125 20.1525 17.8125 17.5C17.8125 14.8475 20.1075 12.8125 22.7875 12.8125H26.0413H26.0625Z" />
<path d="M23.75 17.5C23.75 17.8315 23.6183 18.1495 23.3839 18.3839C23.1495 18.6183 22.8315 18.75 22.5 18.75C22.1685 18.75 21.8505 18.6183 21.6161 18.3839C21.3817 18.1495 21.25 17.8315 21.25 17.5C21.25 17.1685 21.3817 16.8505 21.6161 16.6161C21.8505 16.3817 22.1685 16.25 22.5 16.25C22.8315 16.25 23.1495 16.3817 23.3839 16.6161C23.6183 16.8505 23.75 17.1685 23.75 17.5Z" />
<path fill-rule="evenodd" clip-rule="evenodd" d="M26.0625 12.8124C26.4211 12.7988 26.7781 12.8672 27.1062 13.0124C26.9725 11.0049 26.6037 9.4574 25.4487 8.30115C24.5125 7.36615 23.3263 6.95115 21.8612 6.75365L21.8088 6.7474C21.7957 6.73748 21.7823 6.7279 21.7688 6.71865L17.0988 3.6224C16.2887 3.09375 15.3423 2.81226 14.375 2.81226C13.4077 2.81226 12.4613 3.09375 11.6512 3.6224L6.9825 6.71865C6.9685 6.72788 6.95475 6.73746 6.94125 6.7474L6.88875 6.75365C5.42375 6.95115 4.2375 7.36615 3.30125 8.30115C2.36625 9.2374 1.95125 10.4237 1.75375 11.8887C1.5625 13.3137 1.5625 15.1324 1.5625 17.4299V17.5699C1.5625 19.8674 1.5625 21.6874 1.75375 23.1112C1.95125 24.5762 2.36625 25.7624 3.30125 26.6987C4.2375 27.6337 5.42375 28.0487 6.88875 28.2462C8.31375 28.4374 10.1325 28.4374 12.43 28.4374H16.32C18.6175 28.4374 20.4375 28.4374 21.8612 28.2462C23.3263 28.0487 24.5125 27.6337 25.4487 26.6987C26.6037 25.5424 26.9725 23.9949 27.1062 21.9862C26.8538 22.0987 26.5812 22.1662 26.2987 22.1837C26.225 22.1874 26.145 22.1874 26.0613 22.1874H25.21C25.0675 23.8649 24.7463 24.7499 24.1225 25.3724C23.5938 25.9012 22.8687 26.2187 21.6112 26.3874C20.3275 26.5599 18.6337 26.5624 16.25 26.5624H12.5C10.1163 26.5624 8.42375 26.5599 7.1375 26.3874C5.88125 26.2187 5.15625 25.9012 4.6275 25.3724C4.09875 24.8437 3.78125 24.1187 3.6125 22.8612C3.44 21.5774 3.4375 19.8837 3.4375 17.4999C3.4375 15.1162 3.44 13.4237 3.6125 12.1374C3.78125 10.8812 4.09875 10.1562 4.6275 9.6274C5.15625 9.09865 5.88125 8.78115 7.13875 8.6124C8.42375 8.4399 10.1163 8.4374 12.5 8.4374H16.25C18.6337 8.4374 20.3275 8.4399 21.6125 8.6124C22.8688 8.78115 23.5938 9.09865 24.1225 9.6274C24.7463 10.2499 25.0675 11.1362 25.21 12.8124H26.0413H26.0625ZM12.43 6.5624H16.32C16.9662 6.5624 17.5737 6.5624 18.145 6.56615L16.0625 5.1849C15.0625 4.5224 13.6875 4.5224 12.6875 5.1849L10.6038 6.56615C11.1762 6.5624 11.7837 6.5624 12.4288 6.5624" />
<path d="M7.5 11.5625C7.25136 11.5625 7.0129 11.6613 6.83709 11.8371C6.66127 12.0129 6.5625 12.2514 6.5625 12.5C6.5625 12.7486 6.66127 12.9871 6.83709 13.1629C7.0129 13.3387 7.25136 13.4375 7.5 13.4375H12.5C12.7486 13.4375 12.9871 13.3387 13.1629 13.1629C13.3387 12.9871 13.4375 12.7486 13.4375 12.5C13.4375 12.2514 13.3387 12.0129 13.1629 11.8371C12.9871 11.6613 12.7486 11.5625 12.5 11.5625H7.5Z" />
<path d="M23.75 17.5C23.75 17.8315 23.6183 18.1495 23.3839 18.3839C23.1495 18.6183 22.8315 18.75 22.5 18.75C22.1685 18.75 21.8505 18.6183 21.6161 18.3839C21.3817 18.1495 21.25 17.8315 21.25 17.5C21.25 17.1685 21.3817 16.8505 21.6161 16.6161C21.8505 16.3817 22.1685 16.25 22.5 16.25C22.8315 16.25 23.1495 16.3817 23.3839 16.6161C23.6183 16.8505 23.75 17.1685 23.75 17.5Z" />
</symbol>


<!-- installation -->
    <symbol id="installation" xmlns="http://www.w3.org/2000/svg"  viewBox="0 0 30 30">
<path d="M4.92188 2.57812L4.39406 3.07594L3.07594 4.39406L2.57812 4.92188L2.95875 5.53688L4.92188 8.81813L5.18531 9.28688H7.94063L11.6906 13.0078C8.34 16.3734 4.07719 20.6503 3.92719 20.8013C2.45813 22.2694 2.45531 24.675 3.95531 26.0747C5.42062 27.5203 7.80844 27.5578 9.20062 26.0747L9.22875 26.0447L15 20.2444L20.8013 26.0737L20.8884 26.1328C22.3603 27.5203 24.7013 27.5391 26.0747 26.0737V26.0456H26.1028C27.5391 24.5766 27.5541 22.1887 26.0747 20.8003L26.0447 20.7722L21.1528 15.9084C24.4444 15.6009 27.0225 12.8212 27.0703 9.46312H27.0994C27.1031 9.44438 27.0994 9.42281 27.0994 9.40406V9.375C27.1912 8.29125 26.9569 7.25437 26.3962 6.35719L25.7531 5.3625L21.3872 9.7275L20.0691 8.35031L24.5222 3.89719L23.2331 3.37031C22.4109 3.00857 21.5233 2.81875 20.625 2.8125C17.0212 2.8125 14.0625 5.77125 14.0625 9.375C14.0625 9.76687 14.1469 10.1072 14.2087 10.4588C13.7991 10.8694 13.4916 11.2059 13.0078 11.6897L9.28688 7.96875V5.18531L8.81813 4.92188L5.53688 2.95875L4.92188 2.57812ZM20.625 4.6875C20.7563 4.6875 20.8481 4.76437 20.9766 4.77562L17.4319 8.32031L18.0759 8.99437L20.7131 11.7188L21.3572 12.3928L25.0781 8.67188C25.0969 8.8875 25.2506 9.045 25.2244 9.28688V9.375C25.2244 11.9569 23.1187 14.0625 20.5369 14.0625C20.1928 14.0625 19.7756 13.9819 19.3069 13.8863L18.8081 13.7991L18.4566 14.1506L7.88156 24.7556H7.85156V24.7856C7.18594 25.5141 6.02062 25.5319 5.24437 24.7556V24.7266H5.21437C4.48594 24.0609 4.46812 22.8956 5.24437 22.1194C5.59969 21.7631 12.48 14.8237 15.8494 11.4553L16.2309 11.0747L16.0837 10.5469C15.9948 10.1623 15.9458 9.76962 15.9375 9.375C15.9375 6.79313 18.0431 4.6875 20.625 4.6875ZM5.21437 4.92188L7.41188 6.27V7.2075L7.2075 7.41188H6.27L4.92188 5.21531L5.21437 4.92188ZM18.9253 16.3181L24.7566 22.1194V22.1484H24.7847C25.5141 22.8141 25.5319 23.9794 24.7566 24.7556H24.7266V24.7856C24.0609 25.5141 22.8956 25.5319 22.1194 24.7556L16.3181 18.9263L18.9253 16.3181Z" />
</symbol>



<!-- telegramm -->
    <symbol id="telegramm" xmlns="http://www.w3.org/2000/svg" viewBox="0 0 30 30">
<circle cx="15" cy="15" r="15" fill="#2F89CE"/>
<path d="M6.27621 15.4799L9.89721 16.8066L11.3088 21.2692C11.3701 21.5707 11.7384 21.631 11.9839 21.4501L14.0092 19.8219C14.1933 19.641 14.5002 19.641 14.7456 19.8219L18.3666 22.415C18.6121 22.5959 18.9804 22.4753 19.0417 22.1738L21.7421 9.50967C21.8035 9.20814 21.4966 8.90662 21.1898 9.02723L6.27621 14.6959C5.90797 14.8165 5.90797 15.3593 6.27621 15.4799ZM11.1247 16.1432L18.2439 11.8616C18.3666 11.8013 18.4894 11.9822 18.3666 12.0425L12.5362 17.4097C12.3521 17.5906 12.168 17.8318 12.168 18.1333L11.9839 19.5807C11.9839 19.7616 11.677 19.8219 11.6156 19.5807L10.8792 16.9272C10.695 16.6257 10.8178 16.2639 11.1247 16.1432Z" />
</symbol>

<!-- watsapp -->
    <symbol id="watsapp" xmlns="http://www.w3.org/2000/svg" viewBox="0 0 30 30">
<circle cx="15" cy="15" r="15" fill="#48C95F"/>
<path d="M20.9451 9.79687C19.4634 8.32031 17.4878 7.5 15.4024 7.5C11.0671 7.5 7.55488 11 7.55488 15.3203C7.55488 16.6875 7.93902 18.0547 8.59756 19.2031L7.5 23.25L11.6707 22.1562C12.8232 22.7578 14.0854 23.0859 15.4024 23.0859C19.7378 23.0859 23.25 19.5859 23.25 15.2656C23.1951 13.2422 22.4268 11.2734 20.9451 9.79687ZM19.189 18.1094C19.0244 18.5469 18.2561 18.9844 17.8719 19.0391C17.5427 19.0937 17.1037 19.0938 16.6646 18.9844C16.3902 18.875 16.0061 18.7656 15.5671 18.5469C13.5915 17.7266 12.3293 15.7578 12.2195 15.5938C12.1098 15.4844 11.3963 14.5547 11.3963 13.5703C11.3963 12.5859 11.8902 12.1484 12.0549 11.9297C12.2195 11.7109 12.439 11.7109 12.6037 11.7109C12.7134 11.7109 12.878 11.7109 12.9878 11.7109C13.0976 11.7109 13.2622 11.6562 13.4268 12.0391C13.5915 12.4219 13.9756 13.4062 14.0305 13.4609C14.0854 13.5703 14.0854 13.6797 14.0305 13.7891C13.9756 13.8984 13.9207 14.0078 13.811 14.1172C13.7012 14.2266 13.5915 14.3906 13.5366 14.4453C13.4268 14.5547 13.3171 14.6641 13.4268 14.8281C13.5366 15.0469 13.9207 15.6484 14.5244 16.1953C15.2927 16.8516 15.8963 17.0703 16.1159 17.1797C16.3354 17.2891 16.4451 17.2344 16.5549 17.125C16.6646 17.0156 17.0488 16.5781 17.1585 16.3594C17.2683 16.1406 17.4329 16.1953 17.5976 16.25C17.7622 16.3047 18.75 16.7969 18.9146 16.9062C19.1341 17.0156 19.2439 17.0703 19.2988 17.125C19.3537 17.2891 19.3537 17.6719 19.189 18.1094Z" />
</symbol>


<!-- vk -->
    <symbol id="vk" xmlns="http://www.w3.org/2000/svg" viewBox="0 0 30 30">
<circle cx="15" cy="15" r="15" fill="#4A76A8"/>
<path d="M22.3468 19.9983C22.3468 19.9315 22.2811 19.9315 22.2811 19.8647C22.0185 19.3305 21.4277 18.6627 20.6399 17.9281C20.246 17.5942 20.049 17.3271 19.9177 17.1935C19.7208 16.9264 19.7208 16.726 19.7864 16.4589C19.8521 16.2586 20.1147 15.9247 20.5742 15.3236C20.8368 14.9897 20.9681 14.7894 21.1651 14.589C22.1498 13.2534 22.6094 12.3853 22.4781 11.9846L22.4124 11.9178C22.3468 11.851 22.2811 11.7842 22.1498 11.7842C22.0185 11.7175 21.8216 11.7175 21.6246 11.7842H19.1299C19.0643 11.7842 19.0643 11.7842 18.933 11.7842C18.8673 11.7842 18.8017 11.7842 18.8017 11.7842H18.736H18.6704L18.6047 11.851C18.5391 11.9178 18.5391 11.9178 18.5391 11.9846C18.2765 12.7192 17.9482 13.3202 17.62 13.988C17.423 14.3219 17.2261 14.6558 17.0292 14.9229C16.8322 15.1901 16.7009 15.3904 16.5696 15.524C16.4383 15.6575 16.307 15.7243 16.2414 15.8579C16.1757 15.9247 16.0444 15.9914 16.0444 15.9247C15.9788 15.9247 15.9131 15.9247 15.9131 15.8579C15.8475 15.7911 15.7818 15.7243 15.7162 15.6575C15.6505 15.5908 15.6505 15.4572 15.5849 15.3236C15.5849 15.1901 15.5849 15.0565 15.5849 14.9897C15.5849 14.9229 15.5849 14.7226 15.5849 14.589C15.5849 14.3887 15.5849 14.2551 15.5849 14.1884C15.5849 13.988 15.5849 13.7209 15.5849 13.4538C15.5849 13.1866 15.5849 12.9863 15.5849 12.8527C15.5849 12.7192 15.5849 12.5188 15.5849 12.3853C15.5849 12.1849 15.5849 12.0514 15.5849 11.9846C15.5849 11.9178 15.5192 11.7842 15.5192 11.7175C15.4536 11.6507 15.3879 11.5839 15.3223 11.5171C15.2566 11.4503 15.1253 11.4503 15.0597 11.3836C14.7314 11.3168 14.3375 11.25 13.878 11.25C12.8276 11.25 12.1054 11.3168 11.8428 11.4503C11.7115 11.5171 11.5802 11.5839 11.5146 11.7175C11.3833 11.851 11.3833 11.9178 11.4489 11.9178C11.7772 11.9846 12.0398 12.1181 12.1711 12.3185L12.2367 12.4521C12.3024 12.5188 12.3024 12.6524 12.368 12.8527C12.4337 13.0531 12.4337 13.2534 12.4337 13.5205C12.4337 13.9212 12.4337 14.3219 12.4337 14.589C12.4337 14.9229 12.368 15.1233 12.368 15.3236C12.368 15.524 12.3024 15.6575 12.2367 15.7243C12.1711 15.8579 12.1711 15.9247 12.1054 15.9247C12.1054 15.9247 12.1054 15.9914 12.0398 15.9914C11.9741 15.9914 11.9085 16.0582 11.7772 16.0582C11.7115 16.0582 11.5802 15.9914 11.5146 15.9247C11.3833 15.8579 11.252 15.7243 11.1863 15.5908C11.055 15.4572 10.9237 15.2568 10.7924 14.9897C10.6611 14.7226 10.4642 14.4555 10.3329 14.0548L10.2016 13.7877C10.136 13.6541 10.0047 13.387 9.87336 13.0531C9.74206 12.7192 9.61076 12.4521 9.47946 12.1182C9.41381 11.9846 9.34817 11.9178 9.28252 11.851H9.21686C9.21686 11.851 9.15121 11.7842 9.08556 11.7842C9.01991 11.7842 8.95426 11.7175 8.88862 11.7175H6.52523C6.26263 11.7175 6.13133 11.7842 6.06568 11.851L6.00003 11.9178C6.00003 11.9178 6.00003 11.9846 6.00003 12.0514C6.00003 12.1181 6.00003 12.1849 6.06568 12.3185C6.39393 13.1199 6.78783 13.9212 7.18172 14.7226C7.57562 15.4572 7.96952 16.125 8.23212 16.5925C8.56037 17.0599 8.82296 17.5274 9.15121 17.9281C9.47946 18.3288 9.6764 18.5959 9.74205 18.7295C9.87335 18.863 9.939 18.9298 10.0046 18.9966L10.2016 19.1969C10.3329 19.3305 10.5298 19.5308 10.7924 19.7312C11.055 19.9315 11.3833 20.1318 11.7115 20.3322C12.0398 20.5325 12.4337 20.6661 12.8276 20.7997C13.2871 20.9332 13.681 21 14.0749 20.9332H15.0597C15.2566 20.9332 15.3879 20.8664 15.5192 20.7329L15.5849 20.6661C15.5849 20.5993 15.6505 20.5993 15.6505 20.5325C15.6505 20.4658 15.6505 20.399 15.6505 20.2654C15.6505 19.9983 15.6505 19.798 15.7162 19.5976C15.7818 19.3973 15.7818 19.2637 15.8475 19.1301C15.9131 18.9966 15.9788 18.9298 16.0444 18.863C16.1101 18.7962 16.1757 18.7295 16.1757 18.7295H16.2414C16.3726 18.6627 16.5696 18.7295 16.7009 18.863C16.8979 18.9966 17.0948 19.1969 17.2261 19.3973C17.3574 19.5976 17.5544 19.7979 17.817 20.0651C18.0796 20.3322 18.2765 20.5325 18.4078 20.5993L18.6047 20.7329C18.736 20.7997 18.8673 20.8664 19.0643 20.9332C19.2612 21 19.3925 21 19.5238 21L21.7559 20.9332C21.9529 20.9332 22.1498 20.8664 22.2811 20.7997C22.4124 20.7329 22.4781 20.6661 22.4781 20.5325C22.4781 20.4658 22.4781 20.3322 22.4781 20.2654C22.3468 20.1319 22.3468 20.0651 22.3468 19.9983Z" />
</symbol>

<!-- youtube -->
    <symbol id="youtube" xmlns="http://www.w3.org/2000/svg" viewBox="0 0 30 30">
<circle cx="15" cy="15" r="15" fill="#F40000"/>
<path d="M21.5348 14.1851C21.5348 13.8942 21.4864 13.5548 21.4864 13.1669C21.4379 12.779 21.3894 12.3912 21.3409 12.0518C21.2439 11.6639 21.0985 11.373 20.8076 11.1305C20.5652 10.8881 20.2258 10.7427 19.8864 10.6942C18.7712 10.5487 17.1227 10.5002 14.8924 10.5002C12.6621 10.5002 10.9651 10.5487 9.89848 10.6942C9.55909 10.7427 9.2197 10.8881 8.97727 11.1305C8.73485 11.373 8.54091 11.6639 8.44394 12.0518C8.34697 12.3912 8.29849 12.7305 8.29849 13.1669C8.25 13.5548 8.25 13.8942 8.25 14.1851C8.25 14.476 8.25 14.8154 8.25 15.3002C8.25 15.7851 8.25 16.173 8.25 16.4154C8.25 16.7063 8.29849 17.0457 8.29849 17.4336C8.34697 17.8215 8.39545 18.2093 8.44394 18.5487C8.54091 18.9366 8.68636 19.2275 8.97727 19.4699C9.2197 19.7124 9.55909 19.8578 9.89848 19.9063C11.0136 20.0518 12.6621 20.1002 14.8924 20.1002C17.1227 20.1002 18.8197 20.0518 19.8864 19.9063C20.2258 19.8578 20.5652 19.7124 20.8076 19.4699C21.05 19.2275 21.2439 18.9366 21.3409 18.5487C21.4379 18.2093 21.4864 17.8699 21.4864 17.4336C21.5349 17.0457 21.5348 16.7063 21.5348 16.4154C21.5348 16.1245 21.5348 15.7851 21.5348 15.3002C21.5348 14.8154 21.5348 14.4275 21.5348 14.1851ZM17.4621 15.6881L13.6318 18.0639C13.5833 18.1124 13.4864 18.1609 13.3894 18.1609C13.2924 18.1609 13.2439 18.1608 13.147 18.1124C13.0015 18.0154 12.9045 17.8699 12.9045 17.676V12.876C12.9045 12.6821 13.0015 12.5366 13.147 12.4396C13.2924 12.3427 13.4864 12.3427 13.6318 12.4396L17.4621 14.8154C17.6076 14.9124 17.7045 15.0578 17.7045 15.2033C17.7045 15.3487 17.6076 15.5912 17.4621 15.6881Z" />
</symbol>


<!-- question -->
    <symbol id="question" xmlns="http://www.w3.org/2000/svg" viewBox="0 0 20 20">
<path d="M1 10C1 7.61305 1.94821 5.32387 3.63604 3.63604C5.32387 1.94821 7.61305 1 10 1C12.3869 1 14.6761 1.94821 16.364 3.63604C18.0518 5.32387 19 7.61305 19 10C19 12.3869 18.0518 14.6761 16.364 16.364C14.6761 18.0518 12.3869 19 10 19C7.61305 19 5.32387 18.0518 3.63604 16.364C1.94821 14.6761 1 12.3869 1 10ZM10 2.6875C8.0606 2.6875 6.20064 3.45792 4.82928 4.82928C3.45792 6.20064 2.6875 8.0606 2.6875 10C2.6875 11.9394 3.45792 13.7994 4.82928 15.1707C6.20064 16.5421 8.0606 17.3125 10 17.3125C11.9394 17.3125 13.7994 16.5421 15.1707 15.1707C16.5421 13.7994 17.3125 11.9394 17.3125 10C17.3125 8.0606 16.5421 6.20064 15.1707 4.82928C13.7994 3.45792 11.9394 2.6875 10 2.6875ZM8.785 7.84562C8.68505 8.04583 8.51078 8.19813 8.29854 8.26902C8.08629 8.33991 7.85458 8.32358 7.65438 8.22363C7.45417 8.12367 7.30187 7.94828 7.23098 7.73604C7.16009 7.52379 7.17642 7.29208 7.27637 7.09188C7.4665 6.7105 7.76687 6.30325 8.2315 5.99275C8.70062 5.68 9.29012 5.5 10 5.5C10.6611 5.4958 11.3063 5.70271 11.8416 6.09063C12.4075 6.51475 12.8125 7.17625 12.8125 8.03125C12.8125 8.53525 12.6831 8.965 12.4424 9.325C12.2117 9.67037 11.9136 9.90213 11.6639 10.0697C11.5413 10.1508 11.4164 10.225 11.3118 10.2891L11.305 10.2936C11.206 10.3511 11.1085 10.4112 11.0125 10.4736C10.8928 10.5454 10.7875 10.6389 10.702 10.7493C10.5767 10.9327 10.3842 11.0594 10.1661 11.1018C9.94798 11.1442 9.72197 11.0988 9.53712 10.9756C9.35226 10.8523 9.22347 10.6612 9.1787 10.4436C9.13393 10.2259 9.1768 9.99945 9.298 9.81325C9.505 9.51625 9.7705 9.26312 10.0765 9.06962C10.192 8.99462 10.3094 8.9215 10.4286 8.85025L10.4365 8.84575C10.549 8.77712 10.6412 8.722 10.7267 8.66463C10.8469 8.59292 10.9525 8.49945 11.0384 8.389C11.08 8.32825 11.125 8.23037 11.125 8.03125C11.1295 7.91596 11.1048 7.8014 11.0533 7.69817C11.0018 7.59494 10.9251 7.50636 10.8302 7.44062C10.5864 7.27219 10.2963 7.18374 10 7.1875C9.58488 7.1875 9.33063 7.28875 9.1675 7.39787C9.00251 7.51052 8.87048 7.66506 8.785 7.84562ZM11.125 13.375C11.125 13.6734 11.0065 13.9595 10.7955 14.1705C10.5845 14.3815 10.2984 14.5 10 14.5C9.70163 14.5 9.41548 14.3815 9.2045 14.1705C8.99353 13.9595 8.875 13.6734 8.875 13.375C8.875 13.0766 8.99353 12.7905 9.2045 12.5795C9.41548 12.3685 9.70163 12.25 10 12.25C10.2984 12.25 10.5845 12.3685 10.7955 12.5795C11.0065 12.7905 11.125 13.0766 11.125 13.375Z"/>
</symbol>


<!-- close -->
    <symbol id="close" xmlns="http://www.w3.org/2000/svg" viewBox="0 0 12 12">
<g clip-path="url(#clip0_1_149)">
<path fill-rule="evenodd" clip-rule="evenodd" d="M1.46293 0.251108C1.30127 0.0949727 1.08476 0.00857752 0.860018 0.0105304C0.635278 0.0124834 0.420296 0.102628 0.261375 0.261549C0.102453 0.420471 0.0123086 0.635453 0.0103557 0.860193C0.00840274 1.08493 0.0947979 1.30145 0.250933 1.46311L4.78779 5.99997L0.250933 10.5368C0.169068 10.6159 0.103769 10.7105 0.0588465 10.815C0.0139245 10.9196 -0.00972084 11.0321 -0.0107098 11.1459C-0.0116988 11.2597 0.00998837 11.3726 0.0530863 11.4779C0.0961842 11.5833 0.15983 11.679 0.240309 11.7594C0.320789 11.8399 0.41649 11.9036 0.52183 11.9467C0.62717 11.9898 0.740038 12.0115 0.853849 12.0105C0.96766 12.0095 1.08013 11.9858 1.18471 11.9409C1.28928 11.896 1.38386 11.8307 1.46293 11.7488L5.99979 7.21197L10.5366 11.7488C10.6983 11.905 10.9148 11.9914 11.1396 11.9894C11.3643 11.9874 11.5793 11.8973 11.7382 11.7384C11.8971 11.5795 11.9873 11.3645 11.9892 11.1397C11.9912 10.915 11.9048 10.6985 11.7486 10.5368L7.21179 5.99997L11.7486 1.46311C11.9048 1.30145 11.9912 1.08493 11.9892 0.860193C11.9873 0.635453 11.8971 0.420471 11.7382 0.261549C11.5793 0.102628 11.3643 0.0124834 11.1396 0.0105304C10.9148 0.00857752 10.6983 0.0949727 10.5366 0.251108L5.99979 4.78797L1.46293 0.251108Z"/>
</g>
<defs>
<clipPath id="clip0_1_149">
<rect width="12" height="12" />
</clipPath>
</defs>
</symbol>



<!-- zoom -->
    <symbol id="zoom" xmlns="http://www.w3.org/2000/svg" viewBox="0 0 20 20">
<g clip-path="url(#clip0_1_447)">
<path d="M8.74997 1.66663C10.0568 1.66654 11.3383 2.028 12.4525 2.71102C13.5666 3.39403 14.4702 4.37198 15.063 5.53665C15.6559 6.70131 15.915 8.00729 15.8116 9.31008C15.7083 10.6129 15.2465 11.8617 14.4775 12.9183L14.3133 13.135L17.3566 16.1783C17.5077 16.3279 17.5958 16.5296 17.603 16.7421C17.6102 16.9546 17.536 17.1618 17.3954 17.3213C17.2549 17.4808 17.0586 17.5805 16.8469 17.6001C16.6352 17.6197 16.4241 17.5576 16.2566 17.4266L16.1783 17.3566L13.135 14.3133C12.2478 15.0124 11.2064 15.4893 10.0975 15.7041C8.98859 15.9188 7.8444 15.8653 6.7604 15.548C5.67639 15.2306 4.68399 14.6586 3.866 13.8797C3.04801 13.1008 2.42814 12.1376 2.05812 11.0704C1.68809 10.0033 1.57864 8.86308 1.73889 7.745C1.89914 6.62691 2.32445 5.56337 2.97933 4.64309C3.63421 3.72281 4.49967 2.97248 5.50351 2.4547C6.50735 1.93693 7.62046 1.66672 8.74997 1.66663ZM8.74997 3.33329C7.31338 3.33329 5.93563 3.90398 4.91981 4.9198C3.90398 5.93562 3.3333 7.31337 3.3333 8.74996C3.3333 10.1865 3.90398 11.5643 4.91981 12.5801C5.93563 13.5959 7.31338 14.1666 8.74997 14.1666C10.1866 14.1666 11.5643 13.5959 12.5801 12.5801C13.596 11.5643 14.1666 10.1865 14.1666 8.74996C14.1666 7.31337 13.596 5.93562 12.5801 4.9198C11.5643 3.90398 10.1866 3.33329 8.74997 3.33329ZM8.74997 4.99996C8.95408 4.99999 9.15108 5.07492 9.30361 5.21056C9.45614 5.34619 9.55359 5.53308 9.57747 5.73579L9.5833 5.83329V7.91663H11.6666C11.879 7.91686 12.0833 7.99819 12.2378 8.144C12.3922 8.28981 12.4852 8.48909 12.4976 8.70112C12.5101 8.91316 12.4411 9.12194 12.3047 9.28482C12.1684 9.4477 11.975 9.55237 11.7641 9.57746L11.6666 9.58329H9.5833V11.6666C9.58307 11.879 9.50174 12.0833 9.35593 12.2378C9.21012 12.3922 9.01084 12.4852 8.79881 12.4976C8.58677 12.5101 8.37799 12.4411 8.21511 12.3047C8.05223 12.1684 7.94755 11.975 7.92247 11.7641L7.91663 11.6666V9.58329H5.8333C5.6209 9.58306 5.41661 9.50173 5.26216 9.35592C5.10771 9.21011 5.01477 9.01083 5.00232 8.7988C4.98988 8.58676 5.05886 8.37798 5.19519 8.2151C5.33151 8.05222 5.52489 7.94755 5.7358 7.92246L5.8333 7.91663H7.91663V5.83329C7.91663 5.61228 8.00443 5.40032 8.16071 5.24404C8.31699 5.08776 8.52895 4.99996 8.74997 4.99996Z"/>
</g>
<defs>
<clipPath id="clip0_1_447">
<rect width="20" height="20" />
</clipPath>
</defs>
</symbol>




<!-- star -->
    <symbol id="star" xmlns="http://www.w3.org/2000/svg" viewBox="0 0 15 15">
<path d="M7.49976 12.562L11.1371 14.864C11.8033 15.2858 12.6184 14.6622 12.4431 13.8735L11.479 9.54477L14.6957 6.62838C15.2829 6.09646 14.9674 5.08764 14.1961 5.02344L9.96266 4.64743L8.30612 0.557141C8.00811 -0.185714 6.9914 -0.185714 6.69339 0.557141L5.03685 4.63826L0.803451 5.01427C0.0321484 5.07847 -0.283385 6.08729 0.303857 6.61921L3.52054 9.5356L2.55641 13.8643C2.38111 14.653 3.19624 15.2767 3.86236 14.8548L7.49976 12.562Z"/>
</symbol>

<!-- starSecondary -->
    <symbol id="starSecondary" xmlns="http://www.w3.org/2000/svg" viewBox="0 0 16 15">
<g clip-path="url(#clip0_1_400)">
<path d="M7.74976 12.562L11.3871 14.864C12.0533 15.2858 12.8684 14.6622 12.6931 13.8735L11.729 9.54477L14.9457 6.62838C15.5329 6.09646 15.2174 5.08764 14.4461 5.02344L10.2127 4.64743L8.55612 0.557141C8.25811 -0.185714 7.2414 -0.185714 6.94339 0.557141L5.28685 4.63826L1.05345 5.01427C0.282148 5.07847 -0.0333845 6.08729 0.553857 6.61921L3.77054 9.5356L2.80641 13.8643C2.63111 14.653 3.44624 15.2767 4.11236 14.8548L7.74976 12.562Z"/>
</g>
<defs>
<clipPath id="clip0_1_400">
<rect width="15" height="15"  transform="translate(0.249756)"/>
</clipPath>
</defs>
</symbol>



    <symbol id="user" xmlns="http://www.w3.org/2000/svg"  viewBox="0 0 16 16">
<g>
<path d="M8 2C8.79565 2 9.55871 2.31607 10.1213 2.87868C10.6839 3.44129 11 4.20435 11 5C11 5.79565 10.6839 6.55871 10.1213 7.12132C9.55871 7.68393 8.79565 8 8 8C7.20435 8 6.44129 7.68393 5.87868 7.12132C5.31607 6.55871 5 5.79565 5 5C5 4.20435 5.31607 3.44129 5.87868 2.87868C6.44129 2.31607 7.20435 2 8 2ZM8 9.5C11.315 9.5 14 10.8425 14 12.5V14H2V12.5C2 10.8425 4.685 9.5 8 9.5Z"/>
</g>
</symbol>

    <symbol id="phone" xmlns="http://www.w3.org/2000/svg" viewBox="0 0 16 16">
<g>
<path d="M10.1651 10.74L11.2851 9.62002C11.4359 9.47104 11.6268 9.36906 11.8345 9.32646C12.0422 9.28385 12.2577 9.30246 12.4551 9.38002L13.8201 9.92502C14.0195 10.006 14.1905 10.1441 14.3115 10.3221C14.4325 10.5 14.4981 10.7098 14.5001 10.925V13.425C14.4989 13.5714 14.4681 13.7161 14.4096 13.8502C14.3511 13.9844 14.266 14.1054 14.1595 14.2058C14.053 14.3062 13.9272 14.3841 13.7899 14.4346C13.6525 14.4852 13.5063 14.5074 13.3601 14.5C3.79507 13.905 1.86507 5.80502 1.50007 2.70502C1.48312 2.55279 1.4986 2.39869 1.54549 2.25288C1.59238 2.10706 1.66961 1.97282 1.7721 1.85899C1.87459 1.74516 2.00003 1.65432 2.14015 1.59245C2.28027 1.53058 2.4319 1.49908 2.58507 1.50002H5.00007C5.21557 1.50066 5.42596 1.56575 5.60416 1.68694C5.78237 1.80812 5.92025 1.97984 6.00007 2.18002L6.54507 3.54502C6.62519 3.74155 6.64564 3.95734 6.60384 4.16543C6.56205 4.37351 6.45987 4.56467 6.31007 4.71502L5.19007 5.83502C5.19007 5.83502 5.83507 10.2 10.1651 10.74Z"/>
</g>
</symbol>

    <symbol id="mail" xmlns="http://www.w3.org/2000/svg" viewBox="0 0 16 16">
<path d="M14.6666 5.02344V11.3334C14.6666 11.8436 14.4717 12.3344 14.1217 12.7056C13.7718 13.0768 13.2932 13.3002 12.7839 13.3301L12.6666 13.3334H3.33325C2.82311 13.3335 2.33224 13.1386 1.96108 12.7886C1.58991 12.4386 1.36651 11.96 1.33659 11.4508L1.33325 11.3334V5.02344L7.62992 9.22144L7.70725 9.26544C7.79839 9.30997 7.89848 9.33311 7.99992 9.33311C8.10135 9.33311 8.20145 9.30997 8.29258 9.26544L8.36992 9.22144L14.6666 5.02344Z"/>
<path d="M12.6665 2.66675C13.3865 2.66675 14.0179 3.04675 14.3699 3.61808L7.99988 7.86475L1.62988 3.61808C1.79708 3.34663 2.02674 3.11908 2.29973 2.95441C2.57272 2.78973 2.88112 2.69271 3.19922 2.67141L3.33322 2.66675H12.6665Z"/>
</symbol>

    <symbol id="pin" xmlns="http://www.w3.org/2000/svg" viewBox="0 0 16 16">
<g clip-path="url(#clip0_1_90)">
<path d="M13.5446 3.37396C13.0632 2.45392 12.3509 1.66595 11.4733 1.08249C10.5956 0.499032 9.58075 0.138809 8.52194 0.0349392C8.04297 -0.0116464 7.56039 -0.0116464 7.08142 0.0349392C6.02263 0.138877 5.00777 0.499089 4.13008 1.08248C3.2524 1.66587 2.54004 2.45372 2.05846 3.37365C1.45256 4.54743 1.21852 5.86877 1.38583 7.17124C1.55314 8.4737 2.11431 9.69905 2.99866 10.6929L7.3111 15.7754C7.37066 15.8456 7.44552 15.9022 7.53032 15.941C7.61512 15.9799 7.70774 16 7.80152 16C7.8953 16 7.98792 15.9799 8.07272 15.941C8.15752 15.9022 8.23238 15.8456 8.29194 15.7754L12.6044 10.6929C13.4887 9.69911 14.0499 8.47381 14.2172 7.17139C14.3845 5.86898 14.1505 4.54769 13.5446 3.37396ZM7.80152 8.61506C7.29928 8.61506 6.80832 8.47069 6.39072 8.2002C5.97312 7.92972 5.64764 7.54527 5.45544 7.09548C5.26324 6.64568 5.21295 6.15074 5.31093 5.67323C5.40892 5.19573 5.65077 4.75712 6.00591 4.41286C6.36105 4.0686 6.81352 3.83416 7.30611 3.73918C7.7987 3.64419 8.30929 3.69294 8.7733 3.87925C9.23731 4.06557 9.63391 4.38107 9.91294 4.78588C10.192 5.19069 10.3409 5.66661 10.3409 6.15347C10.3401 6.80609 10.0723 7.43176 9.59626 7.89323C9.12021 8.3547 8.47476 8.61429 7.80152 8.61506Z"/>
</g>
<defs>
<clipPath id="clip0_1_90">
<rect width="16" height="16" />
</clipPath>
</defs>
</symbol>

    <symbol id="pen" xmlns="http://www.w3.org/2000/svg" viewBox="0 0 16 16">
<g>
<path d="M7.60009 12.1073L12.5308 7.17664C11.7012 6.83029 10.9478 6.32426 10.3134 5.68731C9.67618 5.05279 9.16991 4.29916 8.82343 3.46931L3.89276 8.39998C3.50809 8.78464 3.31543 8.97731 3.15009 9.18931C2.95483 9.43949 2.7874 9.7102 2.65076 9.99664C2.53543 10.2393 2.44943 10.498 2.27743 11.014L1.36943 13.736C1.32764 13.8606 1.32144 13.9944 1.35152 14.1224C1.38161 14.2503 1.44679 14.3674 1.53974 14.4603C1.63269 14.5533 1.74972 14.6185 1.87769 14.6485C2.00565 14.6786 2.13946 14.6724 2.26409 14.6306L4.98609 13.7226C5.50276 13.5506 5.76076 13.4646 6.00343 13.3493C6.29009 13.2126 6.56076 13.0453 6.81076 12.85C7.02276 12.6846 7.21543 12.492 7.60009 12.1073ZM13.8988 5.80864C14.3904 5.31702 14.6666 4.65024 14.6666 3.95498C14.6666 3.25972 14.3904 2.59293 13.8988 2.10131C13.4071 1.60969 12.7404 1.3335 12.0451 1.3335C11.3498 1.3335 10.6831 1.60969 10.1914 2.10131L9.60009 2.69264L9.62543 2.76664C9.91683 3.60046 10.3937 4.35724 11.0201 4.97998C11.6614 5.62511 12.4447 6.11138 13.3074 6.39998L13.8988 5.80864Z"/>
</g>
</symbol>


    <symbol id="burger" xmlns="http://www.w3.org/2000/svg" viewBox="0 0 24 24">
<path fill-rule="evenodd" clip-rule="evenodd" d="M1.75 6C1.75 5.30964 2.30964 4.75 3 4.75H21C21.6904 4.75 22.25 5.30964 22.25 6C22.25 6.69036 21.6904 7.25 21 7.25H3C2.30964 7.25 1.75 6.69036 1.75 6ZM1.75 12C1.75 11.3096 2.30964 10.75 3 10.75H15C15.6904 10.75 16.25 11.3096 16.25 12C16.25 12.6904 15.6904 13.25 15 13.25H3C2.30964 13.25 1.75 12.6904 1.75 12ZM1.75 18C1.75 17.3096 2.30964 16.75 3 16.75H19C19.6904 16.75 20.25 17.3096 20.25 18C20.25 18.6904 19.6904 19.25 19 19.25H3C2.30964 19.25 1.75 18.6904 1.75 18Z"/>
</symbol>


    <symbol id="home" xmlns="http://www.w3.org/2000/svg" viewBox="0 0 14 14">
<path fill-rule="evenodd" clip-rule="evenodd" d="M6.46967 1.46967C6.76256 1.17678 7.23744 1.17678 7.53033 1.46967L12.5303 6.46967C12.8232 6.76256 12.8232 7.23744 12.5303 7.53033C12.2473 7.81332 11.7945 7.82289 11.5 7.55904V11.375C11.5 11.7397 11.3551 12.0894 11.0973 12.3473C10.8394 12.6051 10.4897 12.75 10.125 12.75H8.25C7.83579 12.75 7.5 12.4142 7.5 12V10.25H6.5V12C6.5 12.4142 6.16421 12.75 5.75 12.75H3.875C3.51033 12.75 3.16059 12.6051 2.90273 12.3473C2.64487 12.0894 2.5 11.7397 2.5 11.375V7.55904C2.20552 7.82289 1.75266 7.81332 1.46967 7.53033C1.17678 7.23744 1.17678 6.76256 1.46967 6.46967L6.46967 1.46967ZM4 6.06066L4 6.0625V11.25H5V10.125C5 9.76033 5.14487 9.41059 5.40273 9.15273C5.66059 8.89486 6.01033 8.75 6.375 8.75H7.625C7.98967 8.75 8.33941 8.89486 8.59727 9.15273C8.85513 9.41059 9 9.76033 9 10.125V11.25H10V6.0625L10 6.06066L7 3.06066L4 6.06066Z"/>
</symbol>



    <symbol id="chevronTop" xmlns="http://www.w3.org/2000/svg"  viewBox="0 0 20 20">
<path d="M2.045 13.3837C2.27941 13.618 2.59729 13.7497 2.92875 13.7497C3.2602 13.7497 3.57809 13.618 3.8125 13.3837L10 7.19619L16.1875 13.3837C16.4233 13.6114 16.739 13.7374 17.0668 13.7345C17.3945 13.7317 17.708 13.6002 17.9398 13.3685C18.1715 13.1367 18.303 12.8232 18.3058 12.4954C18.3087 12.1677 18.1827 11.8519 17.955 11.6162L10.8837 4.54494C10.6493 4.3106 10.3315 4.17895 10 4.17895C9.66854 4.17895 9.35066 4.3106 9.11625 4.54494L2.045 11.6162C1.81066 11.8506 1.67902 12.1685 1.67902 12.4999C1.67902 12.8314 1.81066 13.1493 2.045 13.3837Z"/>
</symbol>

    <symbol id="chevronBottom" xmlns="http://www.w3.org/2000/svg" viewBox="0 0 20 20">
<path d="M17.955 6.61631C17.7206 6.38197 17.4027 6.25033 17.0713 6.25033C16.7398 6.25033 16.4219 6.38197 16.1875 6.61631L10 12.8038L3.8125 6.61631C3.57675 6.38862 3.26099 6.26262 2.93325 6.26547C2.6055 6.26832 2.29199 6.39978 2.06023 6.63154C1.82847 6.8633 1.69701 7.17682 1.69416 7.50456C1.69131 7.83231 1.8173 8.14806 2.045 8.38381L9.11625 15.4551C9.35066 15.6894 9.66855 15.821 10 15.821C10.3315 15.821 10.6493 15.6894 10.8838 15.4551L17.955 8.38381C18.1893 8.1494 18.321 7.83152 18.321 7.50006C18.321 7.16861 18.1893 6.85072 17.955 6.61631Z"/>
</symbol>


    <symbol id="chevronLeft" xmlns="http://www.w3.org/2000/svg" viewBox="0 0 20 20" >
<path d="M13.3837 17.9551C13.6181 17.7207 13.7497 17.4028 13.7497 17.0713C13.7497 16.7399 13.6181 16.422 13.3837 16.1876L7.19625 10.0001L13.3837 3.81256C13.6114 3.57681 13.7374 3.26105 13.7346 2.93331C13.7317 2.60556 13.6003 2.29205 13.3685 2.06029C13.1368 1.82853 12.8232 1.69707 12.4955 1.69422C12.1678 1.69137 11.852 1.81736 11.6162 2.04506L4.545 9.11631C4.31066 9.35072 4.17902 9.66861 4.17902 10.0001C4.17902 10.3315 4.31066 10.6494 4.545 10.8838L11.6162 17.9551C11.8507 18.1894 12.1685 18.321 12.5 18.321C12.8315 18.321 13.1493 18.1894 13.3837 17.9551Z"/>
</symbol>

    <symbol id="chevronRight" xmlns="http://www.w3.org/2000/svg"  viewBox="0 0 20 20">
<path d="M6.61625 2.04494C6.38191 2.27935 6.25027 2.59723 6.25027 2.92869C6.25027 3.26014 6.38191 3.57803 6.61625 3.81244L12.8038 9.99994L6.61625 16.1874C6.38855 16.4232 6.26256 16.7389 6.26541 17.0667C6.26826 17.3944 6.39972 17.708 6.63148 17.9397C6.86324 18.1715 7.17675 18.3029 7.5045 18.3058C7.83225 18.3086 8.148 18.1826 8.38375 17.9549L15.455 10.8837C15.6893 10.6493 15.821 10.3314 15.821 9.99994C15.821 9.66848 15.6893 9.3506 15.455 9.11619L8.38375 2.04494C8.14934 1.8106 7.83146 1.67896 7.5 1.67896C7.16855 1.67896 6.85066 1.8106 6.61625 2.04494Z"/>
</symbol>


<symbol id="play" xmlns="http://www.w3.org/2000/svg" viewBox="0 0 11 14">
<path d="M9.67424 6.15634C10.2917 6.54929 10.2917 7.45071 9.67425 7.84366L1.53688 13.022C0.871152 13.4456 -5.66824e-07 12.9674 -5.32332e-07 12.1783L-7.96279e-08 1.82167C-4.51356e-08 1.03258 0.87115 0.554368 1.53688 0.978011L9.67424 6.15634Z"/>
</symbol>


<symbol id="search" xmlns="http://www.w3.org/2000/svg" viewBox="0 0 20 20">
<path fill-rule="evenodd" clip-rule="evenodd" d="M6.23262 2.0836C7.16281 1.69831 8.15977 1.5 9.16659 1.5C10.1734 1.5 11.1704 1.69831 12.1006 2.0836C13.0308 2.4689 13.8759 3.03363 14.5879 3.74556C15.2998 4.4575 15.8645 5.30268 16.2498 6.23287C16.6351 7.16305 16.8334 8.16002 16.8334 9.16684C16.8334 10.1737 16.6351 11.1706 16.2498 12.1008C15.9928 12.7214 15.6559 13.3041 15.2487 13.8347L18.207 16.7931C18.5976 17.1836 18.5976 17.8168 18.207 18.2073C17.8165 18.5978 17.1833 18.5978 16.7928 18.2073L13.8345 15.2489C12.5028 16.271 10.8637 16.8337 9.16659 16.8337C7.13322 16.8337 5.18313 16.0259 3.74532 14.5881C2.30751 13.1503 1.49976 11.2002 1.49976 9.16684C1.49976 7.13347 2.30751 5.18338 3.74532 3.74556C4.45725 3.03363 5.30244 2.4689 6.23262 2.0836ZM9.16659 3.5C8.42241 3.5 7.68552 3.64658 6.99799 3.93136C6.31046 4.21615 5.68575 4.63356 5.15953 5.15978C4.0968 6.22252 3.49976 7.6639 3.49976 9.16684C3.49976 10.6698 4.0968 12.1112 5.15953 13.1739C6.22227 14.2366 7.66366 14.8337 9.16659 14.8337C10.6695 14.8337 12.1109 14.2366 13.1737 13.1739C13.6999 12.6477 14.1173 12.023 14.4021 11.3354C14.6869 10.6479 14.8334 9.91102 14.8334 9.16684C14.8334 8.42266 14.6869 7.68576 14.4021 6.99823C14.1173 6.3107 13.6999 5.68599 13.1737 5.15978C12.6474 4.63356 12.0227 4.21615 11.3352 3.93136C10.6477 3.64658 9.91077 3.5 9.16659 3.5Z"/>
</symbol>


<symbol id="file" xmlns="http://www.w3.org/2000/svg" viewBox="0 0 12 12" fill="none">
<g clip-path="url(#clip0_1_47)">
<path d="M5.3125 8.75V3.14687L3.525 4.93437L2.5625 3.9375L6 0.5L9.4375 3.9375L8.475 4.93437L6.6875 3.14687V8.75H5.3125ZM0.5 11.5V8.0625H1.875V10.125H10.125V8.0625H11.5V11.5H0.5Z" fill="#1D88E5"/>
</g>
<defs>
<clipPath id="clip0_1_47">
<rect width="12" height="12" fill="white"/>
</clipPath>
</defs>
</symbol>



<symbol id="triangle" xmlns="http://www.w3.org/2000/svg" viewBox="0 0 8 6">
<path d="M4.83205 4.75193C4.43623 5.34566 3.56377 5.34566 3.16795 4.75192L1.03647 1.5547C0.593429 0.890145 1.06982 6.05855e-07 1.86852 5.36031e-07L6.13148 1.63351e-07C6.93018 9.35268e-08 7.40657 0.890145 6.96353 1.5547L4.83205 4.75193Z"/>
</symbol>

<!-- clock -->
    <symbol id="clock" xmlns="http://www.w3.org/2000/svg" viewBox="0 0 24 24">
<path fill-rule="evenodd" clip-rule="evenodd" d="M12 2.5C6.75329 2.5 2.5 6.75329 2.5 12C2.5 17.2467 6.75329 21.5 12 21.5C17.2467 21.5 21.5 17.2467 21.5 12C21.5 6.75329 17.2467 2.5 12 2.5ZM1.5 12C1.5 6.20101 6.20101 1.5 12 1.5C17.799 1.5 22.5 6.20101 22.5 12C22.5 17.799 17.799 22.5 12 22.5C6.20101 22.5 1.5 17.799 1.5 12Z"/>
<path fill-rule="evenodd" clip-rule="evenodd" d="M11.6464 12.3536C11.5527 12.2598 11.5 12.1326 11.5 12V5H12.5V11.5H19V12.5H12C11.8674 12.5 11.7402 12.4473 11.6464 12.3536Z"/>
</symbol>


<!-- plus -->
    <symbol id="plus" xmlns="http://www.w3.org/2000/svg" viewBox="0 0 12 12" fill="none">
<path d="M0 5H12V7H0V5Z" fill="white"/>
<path d="M7 8.74229e-08L7 12H5L5 0L7 8.74229e-08Z" fill="white"/>
</symbol>


<!-- minus -->
    <symbol id="minus" xmlns="http://www.w3.org/2000/svg" viewBox="0 0 12 2" fill="none">
<path d="M0 0H12V2H0V0Z" fill="white"/>
</symbol>

</svg>